/* XPM */
static char *result[] = {
/* columns rows colors chars-per-pixel */
"32 32 83 1 ",
"  c #000000",
". c #010A03",
"X c #08120E",
"o c #061F0F",
"O c #0F0017",
"+ c #0F0019",
"@ c #0A1511",
"# c #0B1D13",
"$ c #06210F",
"% c #0B2516",
"& c #0B2917",
"* c #0D2C19",
"= c #0F321D",
"- c #0F3B1E",
"; c #10351E",
": c #143D23",
"> c #0F4924",
", c #154226",
"< c #174529",
"1 c #18472A",
"2 c #144928",
"3 c #1A4B2C",
"4 c #17532E",
"5 c #1C502F",
"6 c #17592F",
"7 c #1D4E30",
"8 c #1D5432",
"9 c #175A30",
"0 c #1C5A34",
"q c #205B36",
"w c #205E38",
"e c #1B6236",
"r c #1F6339",
"t c #1F6A3C",
"y c #21663C",
"u c #216C3E",
"i c #20713F",
"p c #255F43",
"a c #236742",
"s c #236C42",
"d c #227442",
"f c #237B44",
"g c #267C49",
"h c #129438",
"j c #1F8D43",
"k c #1E9344",
"l c #1D9C45",
"z c #1F9F48",
"x c #228245",
"c c #208E45",
"v c #25844A",
"b c #28874F",
"n c #268A4D",
"m c #209346",
"M c #22964A",
"N c #219A49",
"B c #279451",
"V c #299554",
"C c #279B52",
"Z c #299A54",
"A c #2C9C5A",
"S c #1CA245",
"D c #1AAB45",
"F c #1EA548",
"G c #1DAB4A",
"H c #16B545",
"J c #18B346",
"K c #14BD45",
"L c #1CB44B",
"P c #16BD48",
"I c #19B849",
"U c #22A24C",
"Y c #20AF4F",
"T c #20B24F",
"R c #27A754",
"E c #29A456",
"W c #27A855",
"Q c #2DA05C",
"! c #0DC443",
"~ c #0DC945",
"^ c #11C145",
"/ c #11C847",
"( c None",
/* pixels */
"((((((((((((((((((((((((((((((((",
"(((((((((((######%%##(((((((((((",
"(((((((((((9966644499(((((((((((",
"(((((((0w78vbvvbvdfBy &*((((((((",
"(((((((88dgNFllgvbvgie6,:(((((((",
"(((((**17VQ^^~KixQVignu3:&((((((",
"((((&<<ydUGPKllbBTUijDjs0,:(((((",
"(((&&18fvK~KKsdAE!Dal~Fby7:&((((",
"((*,1rulDllKKDDLLKHSD^Sdfd91:*((",
"(=*18udH~xsH^^^K^^^/!~lsvny7:&((",
"((%0ylJkcBZKKKK^IRNjNEGHmdff,&((",
"((#efD~jsZAP^KKKLABabAW~lsvn2#((",
"&,3ufxcBVLKjjKK^JfmKSfMEGHjd01;*",
"&<8yffdVQIKffKP^Hsk/DybAL!kde8;*",
"(-+h^ksDPKKKHEZxkKDdlKlfxxffvx:&",
"((+h/kdJKKKKKZZdc^Dal~Sdfffffg:%",
"@rvD^KKjdHKxfixKLABgN/KKKKMv>.((",
"XegFKHKmfJKcxxmKLABnS^KKIKMv, ((",
" :8infiI^EQK^^Kdfgl/K^K^Ngvbr3$ ",
" :8uxfdSHCVJHHJixvMHHHIINxxx08$ ",
" :085ifffifxvvvvvvvvvvvvvvy308% ",
" ;335yiiiffvvvvvvvvvvvxfffy831o ",
"(( ,q3773vbnnvvvvvvvnni18348% ((",
"(( ,q5q5qifidvvvvvxfift50888& ((",
"(. ,q888q373qvnnvbf383888q8q& ((",
"(( ::<38777qquiiidy5888831,:%(((",
"(((  *,4qqqq55755580888q1:o ((((",
"(((((=:<31,3133333313131::&(((((",
"(((((**:,::::::::::::::,;*((((((",
"(((((((((,:::,::,::,:,,(((((((((",
"(((((((((,1,,,,,,,,,,1((((((((((",
"(((((((((((((((((((((((((((((((("
};
