/* XPM */
static char *result[] = {
/* columns rows colors chars-per-pixel */
"32 32 213 2 ",
"   c #000000",
".  c #01000B",
"X  c #080700",
"o  c #170803",
"O  c #001200",
"+  c #001C0D",
"@  c #031C00",
"#  c #191200",
"$  c #000015",
"%  c #290600",
"&  c #380000",
"*  c #281702",
"=  c #371603",
"-  c #321515",
";  c #042208",
":  c #2B2300",
">  c #2D2A01",
",  c #272305",
"<  c #362501",
"1  c #3B2902",
"2  c #312A00",
"3  c #32350B",
"4  c #09003D",
"5  c #1C393D",
"6  c #30302E",
"7  c #480501",
"8  c #560802",
"9  c #461601",
"0  c #541A02",
"q  c #630600",
"w  c #770000",
"e  c #771900",
"r  c #452400",
"t  c #4B2500",
"y  c #472C00",
"u  c #582502",
"i  c #453904",
"p  c #5D3200",
"a  c #573803",
"s  c #5D311C",
"d  c #6B3A00",
"f  c #623700",
"g  c #763800",
"h  c #732300",
"j  c #5C3423",
"k  c #542725",
"l  c #743A39",
"z  c #17412F",
"x  c #3A483E",
"c  c #484800",
"v  c #534600",
"b  c #564B00",
"n  c #584F0A",
"m  c #6A4204",
"M  c #774400",
"N  c #784A02",
"B  c #6C5800",
"V  c #775E00",
"C  c #756902",
"Z  c #7E7200",
"A  c #565026",
"S  c #6B4223",
"D  c #392F43",
"F  c #2A5657",
"G  c #535454",
"H  c #544C4B",
"J  c #526265",
"K  c #8A0D00",
"L  c #A70300",
"P  c #B70003",
"I  c #AA1B00",
"U  c #982300",
"Y  c #AA2400",
"T  c #B32B00",
"R  c #D50000",
"E  c #D21B00",
"W  c #F30000",
"Q  c #D22D00",
"!  c #DD2800",
"~  c #C93200",
"^  c #D33400",
"/  c #D83800",
"(  c #D73617",
")  c #F92700",
"_  c #E53A00",
"`  c #F93B00",
"'  c #C53424",
"]  c #804C06",
"[  c #834607",
"{  c #89520D",
"}  c #8D571B",
"|  c #8A591B",
" . c #8B6B03",
".. c #936500",
"X. c #857305",
"o. c #AD6B01",
"O. c #8E5D29",
"+. c #975E22",
"@. c #9A5E25",
"#. c #8D4F22",
"$. c #8F602C",
"%. c #9D652C",
"&. c #98652A",
"*. c #9E6731",
"=. c #A1672C",
"-. c #A2682C",
";. c #A16327",
":. c #A87B2D",
">. c #A56B31",
",. c #CD4A00",
"<. c #FE4300",
"1. c #F24600",
"2. c #F44B08",
"3. c #D56B00",
"4. c #F07500",
"5. c #FF773A",
"6. c #83595A",
"7. c #A05150",
"8. c #A8494D",
"9. c #B46852",
"0. c #AF706F",
"q. c #D8554F",
"w. c #CC5B5A",
"e. c #DB5C62",
"r. c #CB6768",
"t. c #DA726C",
"y. c #D96578",
"u. c #E87877",
"i. c #FC7A77",
"p. c #EA6E6E",
"a. c #D67249",
"s. c #728500",
"d. c #71806D",
"f. c #9A8700",
"g. c #A08B00",
"h. c #AD8A00",
"j. c #AF9003",
"k. c #BBA805",
"l. c #BBA238",
"z. c #D99602",
"x. c #D58B00",
"c. c #FE9D06",
"v. c #C6AC00",
"b. c #CCB300",
"n. c #D4BC00",
"m. c #D5B900",
"M. c #D4AF00",
"N. c #FDAC00",
"B. c #F3AD00",
"V. c #E3B700",
"C. c #EDBE0E",
"Z. c #CE993A",
"A. c #CCA03A",
"S. c #F3B33F",
"D. c #D6C100",
"F. c #E6CC00",
"G. c #E8C801",
"H. c #F5C800",
"J. c #ECD100",
"K. c #F5D500",
"L. c #F5DA00",
"P. c #FCDB00",
"I. c #ECCE17",
"U. c #FEE200",
"Y. c #F7E500",
"T. c #FFDA2B",
"R. c #969E7F",
"E. c #B3A86F",
"W. c #8D894E",
"Q. c #EDB44E",
"!. c #FF8767",
"~. c #FFA07C",
"^. c #FEC84E",
"/. c #FDE44C",
"(. c #D8C271",
"). c #EBD17B",
"_. c #FE7E86",
"`. c #929394",
"'. c #AF8C82",
"]. c #BEB589",
"[. c #93A2A2",
"{. c #A1A1A2",
"}. c #B8BFB7",
"|. c #FC8582",
" X c #F48180",
".X c #FF8D90",
"XX c #FFA58E",
"oX c #FEABAB",
"OX c #EAB5AF",
"+X c #D1A0A1",
"@X c #CEC496",
"#X c #F3DC82",
"$X c #FFE386",
"%X c #CCCAAE",
"&X c #E8D9A5",
"*X c #FFF7B6",
"=X c #F6EBAD",
"-X c #FFB6C3",
";X c #B8C4C9",
":X c #CBC9CA",
">X c #D8D6D6",
",X c #D6CBCD",
"<X c #F8D0D6",
"1X c #FEF7CE",
"2X c #E9E3D8",
"3X c #F3EED1",
"4X c #DFECEA",
"5X c #E6E4E8",
"6X c #FBF7E7",
"7X c #FEFDFE",
"8X c #F5F5F8",
"9X c #ECEAED",
"0X c None",
/* pixels */
"0X0X0X0X0X            . .     .   X                 .   $ 0X0X0X",
"0X0X0X0X0X6 `.{.{.{.'.f.g.g.f.g.W.8.7.7.7.8.0.{.J 5 `.E.f.0X0X0X",
"0X0X0X0X0XG >X7X7X7X1XP.U.P.P.U.^.|._.|.|.i.oX7X[.J 9X1XG.i 0X0X",
"0X0X0X0X0XG 8X7X:X:X%Xb.b.b.b.b.A.r.r.r.w.w.+X:X'.q.;X@Xb.m.f.0X",
"0X0X0X0X0XG 8X>X                                / 1.7   V P.v.  ",
"0X0X0X0X0XG 8X>X      . .                       x.N.g   3 j.X.  ",
"0X0X0X0X0XG 9X,XX % 1 1 *                       n.P...0 *     X ",
"0X0X0X0X0XA ).(.X * 1 < < *                     n.K...9 1 d t   ",
"0X0X0X0X0Xb K.m.. * r 1 1 < #                   n.K...7 y m y   ",
"0X0X0X0X0Xb L.D.. * 1 1 1 1 1 #                 n.L...0 , O   X ",
"0X0X0X0X0Xs Q.A.X * 1 1 1 1 1 * #               z.B.B   9 Y K   ",
"0X0X0X0X0Xk !.t.@ , < 1 1 1 1 1 *               / 1.9   h 1.~   ",
"0X0X0X0X0XH <X+X    O O O @ ; 2 <               E ) ^ ~ ~ ^ U 0X",
"0X0X0X0X0XG 6X,X7 u j j j s p t :               ~ <.<.<._ 7 0X0X",
"0X0X0X0X0X4 OXoXq.q.e.e.y.e./ w     .           / <.T Y U 0X0X0X",
"0X0X0X0XR. .i..XoXoXoX~.XX!.<.0.J X.i > C Z C e Q /       0X0X0X",
"0X0XF 8X1XK.!.-X7X7X3XT.T.N.2.2X6XI.C n J.Y.C.2.P % 0X0X0X0X0X0X",
"0Xw 0.5X=XF.a.OX6X4X%XD.Y.C.( -X3XI.:.:.G.F.V.1.o.s.0X0X0X0X0X0X",
". r. X6.z i $ l./.W.4 c G.G.7 D x c u.u.n 3 1 & M.J.v 0X0X0X0X0X",
"  r._.q   .   o.N.,.L P c.z.  X     y._.$       D.P.b 0X0X0X0X0X",
"  9.|.l   1 X Y ` <.<.<.` ! . ; , < t.u.- O %   n.K.b 0X0X0X0X0X",
"  Z.Q.A   d a e L L Y I L K p a p f Q.Q.- t f   n.L.b 0X0X0X0X0X",
". v.U. .8 { | m + + ; + + i { { N [ G.F.> 0 d   M.H.v 0X0X0X0X0X",
"$ k.P.4.' *.%.*.$.$.$.$.O.&.=.-.*.*.H.G.> o 1 . 3.4.u 0X0X0X0X0X",
"  E.$X5._ $.*.*.-.-.-.-.-.-.=.%.+.%.).).3 o 2 X R W 7 0X0X0X0X0X",
"  }.6X!.R N N ] ] ] ] ] ] ] ] ] g [ 2X5X6 0 m   ^ ` 8 0X0X0X0X0X",
"  ;X7Xi.R | O.} } } } } } } } } [ [ 5X9X6 7 a X Q ) 7 0X0X0X0X0X",
"  ;X7Xi.Q >.>.>.>.>.>.>.>.>.>.>.o.;.9X9X6 . ,   Q ` 8 0X0X0X0X0X",
"X ].*X^.x.S O.&.+.+.+.+.+.+.&.#.o.C.=X&X6 7 y   z.N.a 0X0X0X0X0X",
". j.P.U.k.  f M M M M M M M M q h.P.U.n.: u d   b.J.b 0X0X0X0X0X",
". B f.g.C   = t r r r r r r r & B f.g.X.# = r   Z f.< 0X0X0X0X0X",
"#         X                                   X       0X0X0X0X0X"
};
