/* XPM */
static char *_5786_4c732266a74dc45e59bb742cd9863daae476add8280ac5fe12a81ebf42441ebb[] = {
/* columns rows colors chars-per-pixel */
"32 32 237 2 ",
"   c #010101",
".  c #01010D",
"X  c #0C0801",
"o  c #180406",
"O  c #001800",
"+  c #131209",
"@  c #000017",
"#  c #140E10",
"$  c #220104",
"%  c #2C0204",
"&  c #320203",
"*  c #380502",
"=  c #2B1F01",
"-  c #3C1401",
";  c #3C1919",
":  c #1A2700",
">  c #2C2100",
",  c #282903",
"<  c #343102",
"1  c #333211",
"2  c #000037",
"3  c #322A2C",
"4  c #490C00",
"5  c #441401",
"6  c #5A1103",
"7  c #48191D",
"8  c #5A0000",
"9  c #7A1A01",
"0  c #7D1200",
"q  c #6E0B00",
"w  c #442400",
"e  c #442D04",
"r  c #5A2E13",
"t  c #6D2B00",
"y  c #722B01",
"u  c #693B04",
"i  c #6F3A19",
"p  c #501228",
"a  c #482027",
"s  c #582D2A",
"d  c #743C33",
"f  c #783739",
"g  c #6E302F",
"h  c #195700",
"j  c #3F5C24",
"k  c #584703",
"l  c #5A5501",
"z  c #495400",
"x  c #684902",
"c  c #754400",
"v  c #7C4C04",
"b  c #774704",
"n  c #675806",
"m  c #72540D",
"M  c #7D6A00",
"N  c #7F7002",
"B  c #54552F",
"V  c #565536",
"C  c #7E5322",
"Z  c #7B4C34",
"A  c #47643D",
"S  c #6B663E",
"D  c #000047",
"F  c #196540",
"G  c #545555",
"H  c #716D4F",
"J  c #950000",
"K  c #8C1000",
"L  c #B41D00",
"P  c #A30000",
"I  c #9B2503",
"U  c #8A2A00",
"Y  c #A12600",
"T  c #A92800",
"R  c #BA2900",
"E  c #A82A10",
"W  c #850032",
"Q  c #A00024",
"!  c #94322F",
"~  c #C62900",
"^  c #CC3100",
"/  c #C53000",
"(  c #D13300",
")  c #F53D01",
"_  c #E73103",
"`  c #804C07",
"'  c #854B09",
"]  c #845407",
"[  c #8E591B",
"{  c #8B5915",
"}  c #94571A",
"|  c #954D0F",
" . c #95651D",
".. c #917012",
"X. c #884827",
"o. c #8A5729",
"O. c #955A2B",
"+. c #864732",
"@. c #934F32",
"#. c #945433",
"$. c #9A6223",
"%. c #9E652B",
"&. c #9B672A",
"*. c #8D6B21",
"=. c #A36A2C",
"-. c #A1672D",
";. c #A46B31",
":. c #A36135",
">. c #B75432",
",. c #FD4200",
"<. c #F8410B",
"1. c #F84B16",
"2. c #F57400",
"3. c #F95432",
"4. c #F04A2D",
"5. c #FA6E37",
"6. c #930056",
"7. c #883945",
"8. c #A03941",
"9. c #E53859",
"0. c #9C4F4D",
"q. c #B35351",
"w. c #927050",
"e. c #B46F4C",
"r. c #B85461",
"t. c #B96E62",
"y. c #C55B54",
"u. c #CB675A",
"i. c #E66643",
"p. c #D1586E",
"a. c #E95669",
"s. c #CA6865",
"d. c #D37262",
"f. c #DD6675",
"g. c #E26779",
"h. c #E56A7B",
"j. c #E66674",
"k. c #F86B77",
"l. c #FB7C7B",
"z. c #FA747B",
"x. c #ED6B73",
"c. c #988A02",
"v. c #978601",
"b. c #998919",
"n. c #A18E00",
"m. c #A99600",
"M. c #B39B04",
"N. c #AC9416",
"B. c #BFA705",
"V. c #BFA21B",
"C. c #988E2A",
"Z. c #DA8500",
"A. c #F88E00",
"S. c #DDBE00",
"D. c #D2B800",
"F. c #CBB108",
"G. c #F9A300",
"H. c #FEB601",
"J. c #FFB800",
"K. c #F5BC0F",
"L. c #CDB331",
"P. c #FFBE36",
"I. c #C2922E",
"U. c #DEC401",
"Y. c #DFC308",
"T. c #E7CA02",
"R. c #EDD202",
"E. c #F4DA01",
"W. c #FAD903",
"Q. c #FAD617",
"!. c #FEC709",
"~. c #FDE301",
"^. c #FBE307",
"/. c #DAC228",
"(. c #F7D528",
"). c #FDCB3A",
"_. c #FFDC32",
"`. c #FADA35",
"'. c #EDCA23",
"]. c #FFE432",
"[. c #96965B",
"{. c #848954",
"}. c #BFAB56",
"|. c #989E62",
" X c #9DA266",
".X c #9EA66A",
"XX c #AEAA6B",
"oX c #B69052",
"OX c #FA837C",
"+X c #F99778",
"@X c #EA9274",
"#X c #C7B96B",
"$X c #FFB964",
"%X c #FFA97A",
"&X c #FFA677",
"*X c #CF9867",
"=X c #BEC47C",
"-X c #EDD448",
";X c #FFC55C",
":X c #ECCA4E",
">X c #FAE24F",
",X c #DAD77E",
"<X c #FFC765",
"1X c #F0D278",
"2X c #FFE666",
"3X c #FFF86D",
"4X c #F9EF6E",
"5X c #D1CF4C",
"6X c #FA7C81",
"7X c #B8BA81",
"8X c #FA8283",
"9X c #FA8588",
"0X c #F59E88",
"qX c #FBAA8A",
"wX c #FFA991",
"eX c #FFB494",
"rX c #FFBA98",
"tX c #FFB28E",
"yX c #D8DA8B",
"uX c #CFD289",
"iX c #E7DB8B",
"pX c #FFC498",
"aX c #FDD998",
"sX c #FBCB8A",
"dX c #DCE393",
"fX c #FAF288",
"gX c #E7E795",
"hX c #F7E99C",
"jX c #F9F69A",
"kX c #F1E78C",
"lX c #FFDEA3",
"zX c #FBFCA6",
"xX c #FFFDAC",
"cX c #F8F8A5",
"vX c #FFFFB3",
"bX c #FFE0A6",
"nX c None",
/* pixels */
"nXnXnXnX                X   X     X       X             nXnXnXnX",
"nXnXnXM v.n...e.0.;                         < ..b.0.8.E 0 nXnXnX",
"nXnX+ B.W.~.(.&Xf.g   , > > > > > > , > > . l U.).+Xa.1.L o nXnX",
"nXnX  }.3X4X$X@Xs.#.m o.C C C C C C C o.C 8 *.2XfXwXk.1.~   nXnX",
"nXnX1 =XxXpXh.e. .=.;.;.;.;.;.=.;.;.;.=.;.} oXhXcX0Xa.1.L & nXnX",
"  {.uXaXpX@Xq.X.v [ [ } [ [ [ [ [ [ [ ' O.#XiXaXqXu.8.E ~ ^ U   ",
"  .XzXlXk.q.x v ' ` ` ` ' ` ` ` v ` ` q o.yXxXeXa.s   . ^ ,.T   ",
"  .XzXlXl.y. .O.-.=.=.=.=.=.-.-.%.%.;.| ;.gXxXeXa.! : o ^ ,.T   ",
"  [.fXaX8Xu. .&.%.#.#.o.o.o.o.O.-.-.;.| &.1XjXtXj.@.: $ ^ ,.I   ",
"  b.].<XOXr.b ] b o . . . .   < v { v t ] /.>X%Xj.d   % ^ ,.Y   ",
"  c.R.;X6Xu.v 5 x n.B.m.M.N.e.0.r r { X. .S.(.&Xf.+.O % ^ ,.Y   ",
"  c.E.<X8Xd. .  N R.^.W.~.(.&Xh.g < %.:.=.T._.&Xh.#., $ ^ ,.I   ",
"  c.E.<X9Xr.m M.L.L.L.F.B.V.t.s.s.q.Z x } U._.%Xg.+.O % ^ ) T   ",
"  c.E.;Xl.6.z R.'.H D .       f 6Xh.a . ' S._.%Xg.Z   % ^ ,.Y   ",
"  n.~.).9.W h T.Q.H D #   o   f k.f.3   O.T.].%Xg.Z O   ^ ,.T   ",
"  v.U.J.2.L } -X-XH D + X +   Z 0X@X! ' I.S.).&Xh.>.U 9 / _ U   ",
"nXnXe F.Q.A.3.fXgXH @ X   X   H gXaX3.A.Q.G.3.OXOX3.) ) T 6 o   ",
"nXnX..D.!.2.i.hXvX7XH 3   1 H XXhXsX4.Z.T.G.5.OXz.4._ _ R 9 4   ",
"  c.E.H.1.P S dXvXcXuXG   B uXcXrXs.s % l F.`.%Xg.f & 6 / ,.I   ",
"  n.W.H._ K F dXvXvXdXH   V gXvXwX9.a   > D.].%Xf.s   . ^ ,.T   ",
"  c.E.J.<.J A dXvXzXuXG   B yXzXwXp.s   k D._.%Xg.d   & ^ ,.I   ",
"  c.E.J.) J B 5X3X4X#XG 2 1 5X4XwXf.a   x Y._.&Xg.d   % ^ ,.I   ",
"  c.E.K.4.Q z D.~.^./.w.V M S.).+Xp.s & { D._.%Xg.Z   % ^ ,.Y   ",
"  v.W.;Xz.u.{ n M.^.^.'.T.'.$X+Xq.d o.O.=.T.Q.&Xg.@.: $ ^ ,.Y   ",
"  C.>X1X9Xd.{   n D.T.R.R.'.+Xp.p < $.%.;./.2X%Xh.@.: $ ^ ,.T   ",
"  [.jXaX6Xr.b u x k l k l l s p t c ' y o.yXjXeXf.d   % ^ ) I   ",
"   XcXlXz.y.]  .X.r 7 7 7 7 e x o.O.O.9 X.yXxXeXa.+.O % ^ ,.Y   ",
"   XcXhXOXu. .&.;.;.-.;.;.-.;.;.-.=.;.} ;.iXzXeXj.@., o / ,.Y   ",
"   XcXxXaX*X| | $.$.$.$.$.$.$.O.$.} } }.iXzXzXrXx.+.O % ( ,.T   ",
"  [.hXxXcXXXq y b c c c c c c c b t t #XzXzXhXwXp.g   % / ) I   ",
"  V [..X|.S * 5 w w w w w w w w w - - H  X X[.w.! ;   o 9 I 6   ",
"X                                           .       o         X "
};
