/* XPM */
static char *_1179_9fead194f8bc60c39950dd87ed899f0c33d96b80bb3f0b45d7fc0f4d9d849e90[] = {
/* columns rows colors chars-per-pixel */
"32 32 7 1 ",
"  c black",
". c #943A3A",
"X c #FFDE00",
"o c #FFAD63",
"O c #FFFFA5",
"+ c white",
"@ c None",
/* pixels */
"@@@@@@@@@@@@@@@@@@@@@@@@@@@@@@@@",
"@@@@@@@@@@@@@@@@@@@@@@@@@@@@@@@@",
"@@@@@@@@@@@@@@@@@@@@@@@@@@@@@@@@",
"@@@@@@@@@@@@@@@@@@@@@@@@@@@@@@@@",
"@@@@@@@@@@@@@@@@@@@@@@@@@@@@@@@@",
"@@@@@@@@@@@@@@@@@@@@@@@@@@@@@@@@",
"@@@@@@@@@@@@@@@@@@@@@@@@@@@@@@@@",
"@@@@@@@@@@@@@@@@@@@@@@@@@@@@@@@@",
"@@@@@@@@@@@@@@@@@@@@@@@@@@@@@@@@",
"@@@@@@@@@@@@@@@@@@@@@@@@@@@@@@@@",
"@@@@@@@@@@@@@@@@@@@@@@@@@@@@@@@@",
"@@@@@@@@@@@@@@    @@@@@@@@@@@@@@",
"@@@@@@@@@@@@@ ++OX @@@@@@@@@@@@@",
"@@@@@@@@@@@@ +....+ @@@@@@@@@@@@",
"@@@@@@@@@@@@ +oXX.+ @@@@@@@@@@@@",
"@@@@@@@@@@@@ +oXX.O @@@@@@@@@@@@",
"@@@@@@@@@@@@ Oo++.O @@@@@@@@@@@@",
"@@@@@@@@@@@@ Xo+O.X @@@@@@@@@@@@",
"@@@@@@@@@@@@ Xooo.X @@@@@@@@@@@@",
"@@@@@@@@@@@@@ OOOX @@@@@@@@@@@@@",
"@@@@@@@@@@@@@@    @@@@@@@@@@@@@@",
"@@@@@@@@@@@@@@@@@@@@@@@@@@@@@@@@",
"@@@@@@@@@@@@@@@@@@@@@@@@@@@@@@@@",
"@@@@@@@@@@@@@@@@@@@@@@@@@@@@@@@@",
"@@@@@@@@@@@@@@@@@@@@@@@@@@@@@@@@",
"@@@@@@@@@@@@@@@@@@@@@@@@@@@@@@@@",
"@@@@@@@@@@@@@@@@@@@@@@@@@@@@@@@@",
"@@@@@@@@@@@@@@@@@@@@@@@@@@@@@@@@",
"@@@@@@@@@@@@@@@@@@@@@@@@@@@@@@@@",
"@@@@@@@@@@@@@@@@@@@@@@@@@@@@@@@@",
"@@@@@@@@@@@@@@@@@@@@@@@@@@@@@@@@",
"@@@@@@@@@@@@@@@@@@@@@@@@@@@@@@@@"
};
