/* XPM */
static char *_6ddf36969664e578a2beb21997476357nzy8c6WrHSI5cVp[] = {
/* columns rows colors chars-per-pixel */
"32 32 88 1 ",
"  c #12742A",
". c #15742A",
"X c #16742A",
"o c #177B2B",
"O c #1B792B",
"+ c #1A7A2B",
"@ c #1D7D2C",
"# c #1E7F2C",
"$ c #217F2C",
"% c #1F812C",
"& c #1F882D",
"* c #20832C",
"= c #23842D",
"- c #21862D",
"; c #23882D",
": c #238A2D",
"> c #278A2D",
", c #278E2E",
"< c #25952E",
"1 c #2A902E",
"2 c #29942E",
"3 c #29952E",
"4 c #2B9A2F",
"5 c #2B9B2F",
"6 c #2B9C2F",
"7 c #2C9D2F",
"8 c #329A30",
"9 c #329E30",
"0 c #2DA130",
"q c #2DA430",
"w c #2FA530",
"e c #24AB30",
"r c #25AC30",
"t c #2AAF31",
"y c #2FAC31",
"u c #3BA632",
"i c #30AD31",
"p c #31AE31",
"a c #3CAE33",
"s c #2EB231",
"d c #2FB231",
"f c #2EB331",
"g c #31B332",
"h c #33B532",
"j c #34B532",
"k c #3AB032",
"l c #34B932",
"z c #37B833",
"x c #35BB33",
"c c #36BD33",
"v c #39B933",
"b c #3CBC34",
"n c #3DBD34",
"m c #3FBE34",
"M c #40AB33",
"N c #42BA34",
"B c #41BE35",
"V c #46BC35",
"C c #4ABC36",
"Z c #43C235",
"A c #45C335",
"S c #46C236",
"D c #46C536",
"F c #49C736",
"G c #4DCB37",
"H c #4FCD38",
"J c #52CB38",
"K c #50CE38",
"L c #50CF38",
"P c #54CC38",
"I c #56CE39",
"U c #53D139",
"Y c #57D139",
"T c #56D43A",
"R c #58D73A",
"E c #5AD83A",
"W c #5BD93B",
"Q c #5CDB3B",
"! c #5DDB3B",
"~ c #5EDD3B",
"^ c #5FDD3C",
"/ c #5FDF3C",
"( c #60DE3C",
") c #61E13C",
"_ c #63E13D",
"` c #63E63D",
"' c #64E43D",
"] c #65E63D",
/* pixels */
"hhhhhhjjhhhhhhhhhhhhhhhhhhhhhhhh",
"hhhhhgddhhhhhhhhhhhhhhhhhhhdddhh",
"hhhjgmHGhhhhhhhhhhhhhhhhhhhFHDhh",
"hhdjdD_QhhhhdhdhhhhhhhhhhhdY_Gdh",
"jhmzdA^EmbhhbmhhhhhhhhhhhhdU^Hdh",
"fD_veZ(E/HedR_DdhhhhhhhhhhdE]Hdh",
"gD^HGIQQQYGHR(Zdhhhhhhhhhhhaakhh",
"dD_E^^QQ~^^Q^_Ddjhhfhhhhhhj: <zh",
"dBITEE^^IYEEPIBdhhzbmhhhhhz5,0lh",
"lq.L~EEEou_R-OqzhdH_Tdjhhhhhzhhh",
"jqOY_~~~*a`E>*qlhdH_Tdhhhhhhfhhh",
"jhi98898;199iyghhhzmzhhhhhhhhhhh",
"hhz:@@%@=*@%hhhhhhddfhhhhhhhhhhh",
"hhgq67664456hhhhhhhhhhhhhhhhhhhh",
"hhhjzzlzvzlzhhhhhhhhhddhhhhhhhhh",
"hhhhhhfhjhdhhhhhhhhhbYYvhhhhhhhh",
"hhhhhhhhhhhhhhjhhhdsm_`mgjhhhhhh",
"hhhhhhhhhhhhhhhhhhmAACVjhjhhhhhh",
"hhhhhhhhhhhhhhjhhtH`J Oihhhhhhhh",
"hhhhhhhhhhhhhhjjhdG^J-,izhhhhhhh",
"hhhhhhhhhhhhhdH_TsI`Tifhhhhhhhhh",
"hhhhhhhhhhhhhdNAVdVAVjhhhhhhhhhh",
"hhhhhhhhhhhhjz<X&c<X&zhhhghhhhhh",
"hhhhhhhhhhhhjz7-<z5-3zhhhhhhhhhh",
"hhhhhhhhhhhhhhhhhhghghhhmREbhhhh",
"hhhhhhhhhhhhhhhhhhhhhhhdm__mdhhh",
"hhhhhhhhhhhhhhhhhhhhhhhhzDDhhhhh",
"hhhhhhhhhjjjhhhhhhhhhhhhhddghhhh",
"hhhhhhhjdA~Thhhhhhhhhhhhhhhhhhhh",
"hhhhhhhjdD_~jghhhhhhhhhhhhhhhhhh",
"hhhhhhhhgvDDjjhhhhhhhhhhhhhhhhhh",
"hhhhhhhhhgddhhhhhhhhhhhhhhhhhhhh"
};
