/* XPM */
static char *_646b0237bf44c048c9d676a02a22ab286V8QvXvqCwFdS6n[] = {
/* columns rows colors chars-per-pixel */
"32 32 183 2 ",
"   c None",
".  c black",
"X  c #290000",
"o  c #7C0000",
"O  c #770000",
"+  c #523E00",
"@  c #514000",
"#  c #4B4433",
"$  c #65552E",
"%  c #635739",
"&  c #7A693D",
"*  c #645E52",
"=  c #6C6046",
"-  c #7E745E",
";  c #7B7262",
":  c #840000",
">  c #8C0000",
",  c #940000",
"<  c #990000",
"1  c #801400",
"2  c #A40000",
"3  c #AA0000",
"4  c #AD0906",
"5  c #BC0000",
"6  c #AB1200",
"7  c #AC1A1B",
"8  c #A31E22",
"9  c #86312B",
"0  c #89372E",
"q  c #863532",
"w  c #873D3A",
"e  c #9C3F3D",
"r  c #A42325",
"t  c #A42629",
"y  c #A52C2C",
"u  c #A92526",
"i  c #A43130",
"p  c #CE0000",
"a  c #C40007",
"s  c #D20001",
"d  c #D0000F",
"f  c #C90B16",
"g  c #D00916",
"h  c #D00715",
"j  c #C01010",
"k  c #D1151D",
"l  c #D5171C",
"z  c #D81D27",
"x  c #D11920",
"c  c #C22F2E",
"v  c #C92B2B",
"b  c #D12629",
"n  c #D22D2E",
"m  c #D62325",
"M  c #C2302F",
"N  c #D52E32",
"B  c #C23231",
"V  c #CC3D3B",
"C  c #D23333",
"Z  c #D23837",
"A  c #D33C3A",
"S  c #C3462F",
"D  c #D3413E",
"F  c #DE3F40",
"G  c #9E6E66",
"H  c #847B64",
"J  c #B46A62",
"K  c #B77170",
"L  c #D44441",
"P  c #DB4544",
"I  c #D44945",
"U  c #D94B4A",
"Y  c #D74B48",
"T  c #D5514D",
"R  c #DC5352",
"E  c #D85B55",
"W  c #D86B63",
"Q  c #DA746C",
"!  c #DB7A71",
"~  c #E37F76",
"^  c #9C8A5F",
"/  c #948C7B",
"(  c #A08072",
")  c #B78579",
"_  c #A3967A",
"`  c #A6997D",
"'  c #AA9A75",
"]  c #A8966A",
"[  c #DC8177",
"{  c #DC8278",
"}  c #E3857C",
"|  c #9D988D",
" . c #A88F81",
".. c #BD8F83",
"X. c #BE9185",
"o. c #B59999",
"O. c #A49A87",
"+. c #ADA28C",
"@. c #AEA284",
"#. c #B4A686",
"$. c #B2A38C",
"%. c #B6A889",
"&. c #B9AB8D",
"*. c #B4A59F",
"=. c #BAA2A1",
"-. c #B6AFA3",
";. c #BAB4A9",
":. c #BEBBB4",
">. c #DF8E83",
",. c #E2998D",
"<. c #C6B48B",
"1. c #CBA595",
"2. c #CBBA95",
"3. c #C6BA9E",
"4. c #C3B495",
"5. c #E5A799",
"6. c #E4AD9F",
"7. c #C9AEAE",
"8. c #C0ABAB",
"9. c #CCB8A9",
"0. c #CCBBBC",
"q. c #EABDAD",
"w. c #E0B0A1",
"e. c #D4C195",
"r. c #D3C29D",
"t. c #CEC3AB",
"y. c #D9C7A1",
"u. c #DECCA5",
"i. c #CECBBE",
"p. c #CCC3B2",
"a. c #D5CBB5",
"s. c #D8C8B6",
"d. c #D5D1BF",
"f. c #E1CFA8",
"g. c #E5D3AC",
"h. c #E9D6AD",
"j. c #EDD9AB",
"k. c #EBD5A7",
"l. c #EFCCBB",
"z. c #ECC3B1",
"x. c #F0CEBD",
"c. c #EEDBB1",
"v. c #EBD4B7",
"b. c #F1DEB3",
"n. c #F2D0BF",
"m. c #F4E1B5",
"M. c #F6E3B8",
"N. c #FAE6BA",
"B. c #FCE8BB",
"V. c #CDC3C0",
"C. c #D3CAC9",
"Z. c #D8CBCC",
"A. c #D3C8C7",
"S. c #DCD0CF",
"D. c #DAD3D3",
"F. c #DEDCDB",
"G. c #DAD8D6",
"H. c #ECDDCA",
"J. c #F5D9C7",
"K. c #F3DECC",
"L. c #E2DDDD",
"P. c #E0D7D7",
"I. c #F8E5C7",
"U. c #E4E3D0",
"Y. c #FAE7D4",
"T. c #FAEDD9",
"R. c #F5E9D6",
"E. c #FAF4DD",
"W. c #E3E1E1",
"Q. c #EBE6E6",
"!. c #EBEBEA",
"~. c #F0EFEE",
"^. c #FCF6E2",
"/. c #FFFAE5",
"(. c #FFFEEA",
"). c #EEF0F1",
"_. c #F4F4F4",
"`. c #FFFFF3",
"'. c #F7F7F9",
"]. c #F6F8F9",
"[. c white",
"{. c #FDFFFF",
"}. c #FDFDFD",
/* pixels */
"                                                                ",
"                        F.W.W.L.L.L.Q.}.                        ",
"                }.W.A.V.2 2 2 2 2 2 2 7.Z.A.}.}.                ",
"            }.=.=.K 5 5 P P P P P R R 5 S s.o.=.].}.            ",
"        ).A.G H.E.q.s Y C n C Z Z p p L N ,.H.x.i =._.          ",
"      F.> 1.(.T.(.l.p D C C Z k n 5.5.n x x s s n j > P.        ",
"    D.4 l E K.(.T.! k Z C C C n l.(.(.l.n Z Z A C Z A 3 C.      ",
"    V.5 U p E { W p Z N C C b I /.T.T./.I b C C C Z b z.o.}.    ",
"  W.< U n Z b p g A C C C C n Z K./.(.I.Z n C C A s q.(.s.0.    ",
"}.7.a A C C C Z Z C C C C C Z h T l.l.T h Z C n L p l.(.I.7.!.  ",
"].> P n C C C C C C C C Z Z C Z n p p n Z n C C Z k ! T.`.9.L.  ",
"!.< P D Z C C C C C C Z s p n Z C L D C C C N C C Z p W } 6 L.  ",
"!., z p p L n C C n Z p Q [ A d Z C C C C C C C D D D h z 2 W.  ",
"!., ~ 6.>.p A C C Z g ,.^.(.l.A n C C C C C C Z p p k A P 3 L.  ",
"_.: T.(.^.,.p A C Z p Y.^.T.(.[ p Z C n C C C d q.l.! s R : Q.  ",
"  Z.$.T./.J.p D C Z p J./.^.^.Q a Z C C C Z p l.(.(.T.Q < 8.}.  ",
"  P.( d.^.w.a V C C b I J.Y.,.s A C C C C A s I.R.R.U.J : P.    ",
"    D. ...2 i y c c B v a 5 a B c c B v c B f X.i.C.9.: S.      ",
"      D.o , 7 u r r u t y i y 8 t r u r u t t 3 ) ) O Z.        ",
"        _.V.: q 9 9 9 9 9 9 9 0 o 9 9 9 0 1 1 w O o._.          ",
"            }.| ' %.%.%.%.%.#.@.t.#.$.#.#.3.3.H }.              ",
"            }.;.2.r.r.r.r.r.r.* i.r.y.r.e.p.a.` }.              ",
"            }.;.k.M.m.b.m.c.N.# . N.b.b.B.] ' -._.              ",
"            }.;.j.2.2.N.h.c.c.u.f.c.c.j.b.g.h.+.].              ",
"            }.;.h.4.#.u._ m.h.m.m.c.c.c.j.c.m.+.].              ",
"            }.-.k.c.` - r.b.c.c.c.c.c.c.c.h.M._ ].              ",
"              F.<.m.h.f.m.c.c.c.c.c.c.c.c.N.2.A.                ",
"              }.O.m.h.m.j.c.m.m.c.c.c.m.h.&.= _.                ",
"                !.] I.j.c.m.<.^ ' &.#.%.%.X !.                  ",
"                _.p.e.h.h.<.*.L.:.@ ; ; % / !.                  ",
"                  ].-.& & ;.].  }.i.@ $ / !.                    ",
"                    ]._._._.      }.}.~._.                      "
};
