/* XPM */
static char *b4394cef576e46e0f03cd42c1880688fJ9KmOKoDZQNX1e3O[] = {
/* columns rows colors chars-per-pixel */
"32 32 183 2 ",
"   c None",
".  c black",
"X  c #290000",
"o  c #7C0000",
"O  c #770000",
"+  c #523E00",
"@  c #514000",
"#  c #4B4433",
"$  c #65552E",
"%  c #635739",
"&  c #7A693D",
"*  c #645E52",
"=  c #6C6046",
"-  c #7E745E",
";  c #7B7262",
":  c #840000",
">  c #8C0000",
",  c #940000",
"<  c #990000",
"1  c #801400",
"2  c #A40000",
"3  c #AA0000",
"4  c #AD0906",
"5  c #BC0000",
"6  c #AB1200",
"7  c #AC1A1B",
"8  c #A31E22",
"9  c #86312B",
"0  c #89372E",
"q  c #863532",
"w  c #873D3A",
"e  c #9C3F3D",
"r  c #A42325",
"t  c #A42629",
"y  c #A52C2C",
"u  c #A92526",
"i  c #A43130",
"p  c #CE0000",
"a  c #C40007",
"s  c #D20001",
"d  c #D0000F",
"f  c #C90B16",
"g  c #D00916",
"h  c #D00715",
"j  c #C01010",
"k  c #D1151D",
"l  c #D5171C",
"z  c #D81D27",
"x  c #D11920",
"c  c #C22F2E",
"v  c #C92B2B",
"b  c #D12629",
"n  c #D22D2E",
"m  c #D62325",
"M  c #C2302F",
"N  c #D52E32",
"B  c #C23231",
"V  c #CC3D3B",
"C  c #D23333",
"Z  c #D23837",
"A  c #D33C3A",
"S  c #C3462F",
"D  c #D3413E",
"F  c #DE3F40",
"G  c #9E6E66",
"H  c #847B64",
"J  c #B46A62",
"K  c #B77170",
"L  c #D44441",
"P  c #DB4544",
"I  c #D44945",
"U  c #D94B4A",
"Y  c #D74B48",
"T  c #D5514D",
"R  c #DC5352",
"E  c #D85B55",
"W  c #D86B63",
"Q  c #DA746C",
"!  c #DB7A71",
"~  c #E37F76",
"^  c #9C8A5F",
"/  c #948C7B",
"(  c #A08072",
")  c #B78579",
"_  c #A3967A",
"`  c #A6997D",
"'  c #AA9A75",
"]  c #A8966A",
"[  c #DC8177",
"{  c #DC8278",
"}  c #E3857C",
"|  c #9D988D",
" . c #A88F81",
".. c #BD8F83",
"X. c #BE9185",
"o. c #B59999",
"O. c #A49A87",
"+. c #ADA28C",
"@. c #AEA284",
"#. c #B4A686",
"$. c #B2A38C",
"%. c #B6A889",
"&. c #B9AB8D",
"*. c #B4A59F",
"=. c #BAA2A1",
"-. c #B6AFA3",
";. c #BAB4A9",
":. c #BEBBB4",
">. c #DF8E83",
",. c #E2998D",
"<. c #C6B48B",
"1. c #CBA595",
"2. c #CBBA95",
"3. c #C6BA9E",
"4. c #C3B495",
"5. c #E5A799",
"6. c #E4AD9F",
"7. c #C9AEAE",
"8. c #C0ABAB",
"9. c #CCB8A9",
"0. c #CCBBBC",
"q. c #EABDAD",
"w. c #E0B0A1",
"e. c #D4C195",
"r. c #D3C29D",
"t. c #CEC3AB",
"y. c #D9C7A1",
"u. c #DECCA5",
"i. c #CECBBE",
"p. c #CCC3B2",
"a. c #D5CBB5",
"s. c #D8C8B6",
"d. c #D5D1BF",
"f. c #E1CFA8",
"g. c #E5D3AC",
"h. c #E9D6AD",
"j. c #EDD9AB",
"k. c #EBD5A7",
"l. c #EFCCBB",
"z. c #ECC3B1",
"x. c #F0CEBD",
"c. c #EEDBB1",
"v. c #EBD4B7",
"b. c #F1DEB3",
"n. c #F2D0BF",
"m. c #F4E1B5",
"M. c #F6E3B8",
"N. c #FAE6BA",
"B. c #FCE8BB",
"V. c #CDC3C0",
"C. c #D3CAC9",
"Z. c #D8CBCC",
"A. c #D3C8C7",
"S. c #DCD0CF",
"D. c #DAD3D3",
"F. c #DEDCDB",
"G. c #DAD8D6",
"H. c #ECDDCA",
"J. c #F5D9C7",
"K. c #F3DECC",
"L. c #E2DDDD",
"P. c #E0D7D7",
"I. c #F8E5C7",
"U. c #E4E3D0",
"Y. c #FAE7D4",
"T. c #FAEDD9",
"R. c #F5E9D6",
"E. c #FAF4DD",
"W. c #E3E1E1",
"Q. c #EBE6E6",
"!. c #EBEBEA",
"~. c #F0EFEE",
"^. c #FCF6E2",
"/. c #FFFAE5",
"(. c #FFFEEA",
"). c #EEF0F1",
"_. c #F4F4F4",
"`. c #FFFFF3",
"'. c #F7F7F9",
"]. c #F6F8F9",
"[. c white",
"{. c #FDFFFF",
"}. c #FDFDFD",
/* pixels */
"                                                                ",
"                        {.Q.U.W.W.W.W.L.                        ",
"                {.{.A.C.7.2 2 3 2 2 2 2 V.A.W.{.                ",
"            {.].=.=.p.S 5 R U P P P P P 5 5 K *.=.}.            ",
"          _.=.e J.H.,.N L p p Z Z N C C Y s q.R.H.G C.).        ",
"        S.> j m s p k k n 5.5.N x Z C n L p J.(.T.`.1., F.      ",
"      Z.3 A Z C Z Z Z n l./.(.l.n C C C Z k ! R./.I.E l 4 G.    ",
"    {.o.z.b Z C C C b I /.E.R./.I b C C n Z p W { T p U 5 0.    ",
"    0.s.`.q.p D C C n Z K././.K.Z n C C C C A g p b A n Y < W.  ",
"  !.9.K.(.l.p L C C Z h T l.l.T h Z C C C C C Z Z Z n C F 5 7.}.",
"  L.9.`.R.! k Z C C C C n p p n Z C Z Z C n C C C n C C N P > ].",
"  P.6 } W p Z N n C C C Z D D Z Z n p p A C n C C C C A D P , !.",
"  W.2 z h L L D C C C C C n n Z d A { Q p Z C C C n F p p z , !.",
"  L.3 P A k p p Z C C C C C Z n Z l././.,.h Z N C V p >.6.~ , !.",
"  Q.> R p ! l.z.d C C C C C Z p { /.T.^.R.p A C Z p >.^.(.T.: _.",
"  {.;.< Q T././.l.p Z C C C Z p Q /.^./.J.p A C L p J.(.T.$.Z.  ",
"    F.: J U.R.R.Y.s A C C C C A s ,.T.J.I b C Z Z p w.^.d.G W.  ",
"      Z.> 9.d.i...f B M M M c M B a 5 a v c c c r e 2 .. .D.    ",
"        Z.O ) ) 2 t r 8 u r r t 8 y i y r r r r r 7 , o G.      ",
"          _.o.o w o 1 0 9 9 9 o 0 9 9 9 9 9 9 0 9 : V._.        ",
"              {.^ 3.-.' %.%.@.t.@.#.#.#.%.#.%.' | {.            ",
"              }.| a.d.e.y.r.r.i.* y.r.r.r.r.r.2.;.{.            ",
"              ].-.' ] B.c.b.B.. # N.b.b.b.m.M.k.;.{.            ",
"              ].#.j.g.m.c.c.c.u.u.c.c.h.N.2.2.j.;.{.            ",
"              '.+.m.c.c.c.c.c.m.b.c.b._ f.#.4.j.;.{.            ",
"              '._ m.h.c.c.c.c.c.c.c.b.y.- ` j.j.-.{.            ",
"                C.2.M.c.c.c.c.c.c.c.c.b.f.k.m.4.G.              ",
"                _.= &.c.m.j.c.b.b.b.c.c.c.c.b.O.{.              ",
"                  !.X %.%.#.%.' ^ <.m.c.j.I.] !.                ",
"                  !./ % - ; @ 0.F.-.<.h.h.e.t._.                ",
"                    ~./ $ @ V.{.  ].;.& & -.'.                  ",
"                      ).!.}.'.      _._._.'.                    "
};
